<?xml version="1.0" encoding="UTF-8"?>
<svg xmlns="http://www.w3.org/2000/svg" xmlns:xlink="http://www.w3.org/1999/xlink" width="100" height="100" viewBox="0 0 100 100">
<path fill-rule="nonzero" fill="rgb(100%, 100%, 100%)" fill-opacity="1" stroke-width="0.75" stroke-linecap="butt" stroke-linejoin="miter" stroke="rgb(94.509888%, 35.293579%, 14.117432%)" stroke-opacity="1" stroke-miterlimit="4" d="M 75.785156 9.238281 L 79.59375 9.238281 L 79.59375 6.003906 L 75.785156 6.003906 Z M 75.785156 9.238281 " transform="matrix(1, 0, 0, -1, 0, 100)"/>
<path fill-rule="nonzero" fill="rgb(100%, 100%, 100%)" fill-opacity="1" stroke-width="0.75" stroke-linecap="butt" stroke-linejoin="miter" stroke="rgb(0%, 0%, 0%)" stroke-opacity="1" stroke-miterlimit="4" d="M 0.00123125 0.0014375 L 3.38795 0.380344 L 3.38795 -2.549344 C 3.38795 -3.158719 3.844981 -3.576688 4.489513 -3.576688 L 4.680919 -3.576688 C 5.329356 -3.576688 5.786388 -3.158719 5.786388 -2.549344 L 5.786388 -0.30325 C 5.786388 2.130344 -0.0378312 2.130344 -0.0378312 6.395969 L -0.0378312 9.438937 C -0.0378312 11.685031 1.446544 13.208469 3.653575 13.208469 L 5.4817 13.208469 C 7.688731 13.208469 9.173106 11.685031 9.173106 9.438937 L 9.173106 7.005344 L 5.786388 6.622531 L 5.786388 10.087375 C 5.786388 10.149875 5.735606 10.200656 5.6692 10.200656 L 3.653575 10.200656 C 3.591075 10.200656 3.540294 10.149875 3.540294 10.087375 L 3.540294 7.0405 C 3.540294 4.606906 9.364513 4.606906 9.364513 0.341281 L 9.364513 -2.818875 C 9.364513 -4.897 7.677013 -6.5845 5.594981 -6.5845 L 3.766856 -6.5845 C 1.688731 -6.5845 0.00123125 -4.897 0.00123125 -2.818875 Z M 0.00123125 0.0014375 " transform="matrix(1, 0, 0, -1, 81.2683, 87.7905)"/>
<path fill-rule="nonzero" fill="rgb(100%, 100%, 100%)" fill-opacity="1" stroke-width="0.75" stroke-linecap="butt" stroke-linejoin="miter" stroke="rgb(0%, 0%, 0%)" stroke-opacity="1" stroke-miterlimit="4" d="M 92.421875 25.035156 L 96 25.035156 L 96 6.003906 L 92.421875 6.003906 Z M 96 27.09375 L 92.421875 27.09375 L 92.421875 29.757812 L 96 29.757812 Z M 96 27.09375 " transform="matrix(1, 0, 0, -1, 0, 100)"/>
<path fill-rule="nonzero" fill="rgb(100%, 100%, 100%)" fill-opacity="1" stroke-width="0.75" stroke-linecap="butt" stroke-linejoin="miter" stroke="rgb(0%, 0%, 0%)" stroke-opacity="1" stroke-miterlimit="4" d="M 0 0 L 17.859375 0 L 7.253906 -48.683594 L 17 -47.019531 L 17 -53 L -0.859375 -53 L 9.746094 -4.316406 L 0 -5.980469 Z M 0 0 " transform="matrix(1, 0, 0, -1, 3.5, 40.5)"/>
<path fill-rule="nonzero" fill="rgb(100%, 100%, 100%)" fill-opacity="1" stroke-width="0.75" stroke-linecap="butt" stroke-linejoin="miter" stroke="rgb(0%, 0%, 0%)" stroke-opacity="1" stroke-miterlimit="4" d="M -0.00036875 0 L 7.495725 0 L 10.749631 -34.980469 L 11.280881 -43.988281 L 14.081663 0 L 21.577756 0 L 14.765256 -53 L 6.812131 -53 Z M -0.00036875 0 " transform="matrix(1, 0, 0, -1, 22.7074, 40.5)"/>
<path fill-rule="nonzero" fill="rgb(100%, 100%, 100%)" fill-opacity="1" stroke-width="0.75" stroke-linecap="butt" stroke-linejoin="miter" stroke="rgb(0%, 0%, 0%)" stroke-opacity="1" stroke-miterlimit="4" d="M 0 0 L -7 0 L -7 6 L 7 6 L 7 -38.570312 C 7 -45.1875 4.339844 -48 -1.367188 -48 L -2.539062 -48 C -8.308594 -48 -11 -44.988281 -11 -37.90625 L -11 -30.5 L -4 -28.871094 L -4 -38.394531 C -4 -39.941406 -3.308594 -41 -2.382812 -41 L -1.671875 -41 C -0.714844 -41 0 -40.007812 0 -38.5625 Z M 0 0 " transform="matrix(1, 0, 0, -1, 66.5, 46.5)"/>
<path fill-rule="nonzero" fill="rgb(100%, 100%, 100%)" fill-opacity="1" d="M 47.121094 47.527344 C 47.085938 49.835938 47.484375 50.484375 47.296875 54.835938 C 47.027344 61.007812 48.214844 71.5625 48.492188 84.28125 C 48.492188 84.28125 48.703125 85.867188 49.050781 93.976562 L 51.351562 94.132812 C 51.738281 90.152344 52.0625 86.894531 52.285156 84.675781 C 52.285156 84.675781 53.460938 73.011719 54.820312 57.070312 C 54.84375 56.773438 54.859375 56.472656 54.859375 56.472656 C 54.875 56.148438 54.863281 55.964844 55.015625 52.957031 C 55.355469 46.382812 55.398438 43.503906 55.105469 41.761719 C 55.078125 41.597656 55.023438 41.472656 54.945312 41.371094 C 54.710938 41.058594 54.332031 41.15625 53.824219 40.875 C 53.570312 40.738281 53.433594 40.59375 53.363281 40.53125 C 52.703125 39.960938 49.496094 40.621094 47.121094 40.785156 C 46.207031 40.851562 47.171875 44.488281 47.121094 47.527344 "/>
<path fill="none" stroke-width="0.75" stroke-linecap="butt" stroke-linejoin="miter" stroke="rgb(0%, 0%, 0%)" stroke-opacity="1" stroke-miterlimit="10" d="M -0.00020625 -0.00134375 C -0.0353625 -2.309937 0.363075 -2.958375 0.175575 -7.309937 C -0.0939563 -13.481812 1.093544 -24.0365 1.370887 -36.75525 C 1.370887 -36.75525 1.581825 -38.341187 1.929481 -46.450562 L 4.230262 -46.606812 C 4.616981 -42.626344 4.9412 -39.368531 5.163856 -37.149781 C 5.163856 -37.149781 6.339637 -25.485719 7.699012 -9.544312 C 7.72245 -9.247437 7.738075 -8.946656 7.738075 -8.946656 C 7.7537 -8.622437 7.741981 -8.438844 7.894325 -5.431031 C 8.234169 1.143188 8.277137 4.022094 7.984169 5.764281 C 7.956825 5.928344 7.902137 6.053344 7.824012 6.154906 C 7.589637 6.467406 7.210731 6.36975 6.702919 6.651 C 6.449012 6.787719 6.312294 6.93225 6.241981 6.99475 C 5.581825 7.565063 2.374794 6.904906 -0.00020625 6.740844 C -0.914269 6.674438 0.050575 3.037719 -0.00020625 -0.00134375 Z M -0.00020625 -0.00134375 " transform="matrix(1, 0, 0, -1, 47.1213, 47.526)"/>
<path fill-rule="nonzero" fill="rgb(0%, 0%, 0%)" fill-opacity="1" d="M 53.089844 79.152344 C 51.605469 79.902344 49.71875 79.582031 48.375 78.707031 C 49.117188 78.957031 49.894531 79.109375 50.636719 79.046875 C 51.414062 78.988281 51.996094 78.71875 52.644531 78.257812 C 52.644531 78.257812 53.089844 79.152344 53.089844 79.152344 "/>
<path fill="none" stroke-width="0.5" stroke-linecap="butt" stroke-linejoin="miter" stroke="rgb(0%, 0%, 0%)" stroke-opacity="1" stroke-miterlimit="10" d="M 0.0018875 0.0005375 C 1.330013 -7.4604 0.455013 -18.237744 0.583919 -21.483838 C 0.775325 -26.331494 1.185481 -31.2729 0.97845 -35.726025 C 0.775325 -40.155713 1.111263 -51.17915 1.111263 -53.546338 " transform="matrix(1, 0, 0, -1, 48.6778, 40.4771)"/>
<path fill-rule="nonzero" fill="rgb(94.509888%, 35.293579%, 14.117432%)" fill-opacity="1" d="M 55.09375 40.339844 C 54.699219 40.320312 54.429688 39.996094 54.132812 39.824219 C 53.515625 39.347656 52.746094 39.371094 52.019531 39.363281 C 50.332031 39.542969 48.679688 39.816406 46.933594 39.75 C 48.972656 39.011719 51.21875 38.316406 53.382812 38.902344 C 54.285156 39.125 54.503906 39.984375 55.09375 40.339844 "/>
<path fill="none" stroke-width="1" stroke-linecap="butt" stroke-linejoin="miter" stroke="rgb(100%, 100%, 100%)" stroke-opacity="1" stroke-miterlimit="10" d="M 0 0 C 0.164062 -1.582031 -0.925781 -2.257812 -1.320312 -2.859375 C -1.730469 -3.480469 -2.023438 -4.035156 -2 -4 C -1.566406 -3.308594 -3.25 -5.097656 -2.839844 -5.882812 C -2.179688 -7.144531 -1.316406 -7.191406 -1 -7 " transform="matrix(1, 0, 0, -1, 50.5, 29.5)"/>
<path fill-rule="nonzero" fill="rgb(100%, 100%, 100%)" fill-opacity="1" d="M 40.089844 16.277344 C 40.089844 16.277344 40.917969 20.769531 43.152344 23.269531 C 44.984375 25.324219 46.945312 26.867188 46.945312 26.867188 C 46.945312 26.867188 45.957031 26.640625 44.546875 26.484375 C 42.394531 26.25 39.816406 27.472656 39.816406 27.472656 C 39.816406 27.472656 42.363281 29.496094 44.960938 29.503906 C 46.367188 29.507812 47.738281 29.398438 47.738281 29.398438 C 47.738281 29.398438 47.160156 29.84375 46.367188 30.523438 C 45.460938 31.300781 44.601562 33.015625 44.601562 33.015625 C 44.601562 33.015625 47.15625 32.890625 48.792969 31.460938 C 50.113281 30.308594 50.535156 28.984375 50.664062 29.273438 C 51.441406 30.988281 50.292969 32.519531 50.292969 32.519531 C 50.292969 32.519531 51.554688 31.566406 50.910156 29.3125 C 50.832031 29.042969 50.996094 29.722656 51.109375 29.980469 C 51.398438 30.617188 51.867188 31.554688 52.449219 32.320312 C 53.453125 33.636719 55.542969 34.128906 55.542969 34.128906 C 55.542969 34.128906 55.253906 31.992188 54.292969 30.816406 C 54.492188 31.085938 53.367188 29.773438 53.367188 29.773438 C 53.367188 29.773438 53.632812 30.589844 56.148438 31.300781 C 58.613281 32.082031 61.554688 30.230469 61.554688 30.230469 C 61.554688 30.230469 59.617188 28.996094 58.78125 28.742188 C 56.691406 28.105469 55.335938 27.972656 55.335938 27.972656 C 55.335938 27.972656 57.691406 26.933594 60.128906 25.144531 C 62.785156 23.199219 64.285156 19.328125 64.285156 19.328125 C 64.285156 19.328125 59.945312 19.757812 58.15625 20.714844 C 53.980469 23.226562 53.582031 24.445312 53.582031 24.445312 C 53.582031 24.445312 54.832031 23.160156 55.175781 19.625 C 55.683594 14.378906 53.195312 9.460938 53.195312 9.460938 C 53.195312 9.460938 49.441406 13.414062 49.101562 17.90625 C 48.855469 21.179688 49.421875 24.007812 49.421875 24.007812 C 49.421875 24.007812 48.582031 22.285156 47.1875 20.457031 C 44.867188 17.421875 40.089844 16.277344 40.089844 16.277344 "/>
<path fill="none" stroke-width="0.75" stroke-linecap="butt" stroke-linejoin="miter" stroke="rgb(0%, 0%, 0%)" stroke-opacity="1" stroke-miterlimit="10" d="M 0.00124375 -0.00004375 C 0.00124375 -0.00004375 0.829369 -4.492231 3.063744 -6.992231 C 4.895775 -9.046919 6.856713 -10.589887 6.856713 -10.589887 C 6.856713 -10.589887 5.868431 -10.363325 4.458275 -10.207075 C 2.305931 -9.9727 -0.272194 -11.195356 -0.272194 -11.195356 C -0.272194 -11.195356 2.274681 -13.218794 4.872338 -13.226606 C 6.278588 -13.230512 7.649681 -13.121137 7.649681 -13.121137 C 7.649681 -13.121137 7.071556 -13.56645 6.278588 -14.246137 C 5.372338 -15.023481 4.512963 -16.738325 4.512963 -16.738325 C 4.512963 -16.738325 7.06765 -16.613325 8.704369 -15.183637 C 10.024681 -14.031294 10.446556 -12.707075 10.575463 -12.996137 C 11.352806 -14.710981 10.204369 -16.242231 10.204369 -16.242231 C 10.204369 -16.242231 11.466088 -15.289106 10.821556 -13.0352 C 10.743431 -12.765669 10.907494 -13.445356 11.020775 -13.703169 C 11.309838 -14.339887 11.778588 -15.277387 12.360619 -16.043012 C 13.364525 -17.359419 15.454369 -17.851606 15.454369 -17.851606 C 15.454369 -17.851606 15.165306 -15.714887 14.204369 -14.539106 C 14.403588 -14.808637 13.278588 -13.496137 13.278588 -13.496137 C 13.278588 -13.496137 13.544213 -14.312544 16.059838 -15.023481 C 18.524681 -15.804731 21.466088 -13.953169 21.466088 -13.953169 C 21.466088 -13.953169 19.528588 -12.718794 18.69265 -12.464887 C 16.602806 -11.828169 15.247338 -11.695356 15.247338 -11.695356 C 15.247338 -11.695356 17.602806 -10.656294 20.040306 -8.867231 C 22.696556 -6.921919 24.196556 -3.050825 24.196556 -3.050825 C 24.196556 -3.050825 19.856713 -3.480512 18.06765 -4.437544 C 13.891869 -6.949262 13.493431 -8.168012 13.493431 -8.168012 C 13.493431 -8.168012 14.743431 -6.882856 15.087181 -3.3477 C 15.594994 1.898394 13.106713 6.816363 13.106713 6.816363 C 13.106713 6.816363 9.352806 2.863238 9.012963 -1.62895 C 8.766869 -4.902387 9.333275 -7.730512 9.333275 -7.730512 C 9.333275 -7.730512 8.493431 -6.007856 7.0989 -4.179731 C 4.778588 -1.144575 0.00124375 -0.00004375 0.00124375 -0.00004375 Z M 0.00124375 -0.00004375 " transform="matrix(1, 0, 0, -1, 40.0886, 16.2773)"/>
<path fill-rule="nonzero" fill="rgb(94.509888%, 35.293579%, 14.117432%)" fill-opacity="1" d="M 54.710938 38.882812 C 54.316406 38.863281 54.046875 38.539062 53.746094 38.371094 C 52.277344 37.441406 50.390625 38.101562 48.8125 38.433594 C 48.15625 38.632812 47.511719 38.878906 46.933594 39.335938 C 48.082031 37.417969 50.949219 36.886719 52.996094 37.445312 C 53.898438 37.667969 54.121094 38.527344 54.710938 38.882812 "/>
<path fill-rule="nonzero" fill="rgb(0%, 0%, 0%)" fill-opacity="1" d="M 50.347656 29.359375 C 50.773438 30.828125 50.589844 32.707031 49.386719 33.828125 C 49.019531 34.210938 48.667969 34.527344 48.710938 34.8125 C 48.734375 35.921875 51.316406 35.871094 52.269531 36.378906 C 52.746094 36.585938 53.25 36.847656 53.527344 37.292969 C 53.125 36.96875 52.652344 36.816406 52.167969 36.730469 C 50.898438 36.425781 49.414062 36.683594 48.339844 35.761719 C 47.828125 35.261719 47.863281 34.359375 48.324219 33.894531 C 49.753906 32.710938 50.359375 31.25 50.347656 29.359375 "/>
<path fill-rule="nonzero" fill="rgb(0%, 0%, 0%)" fill-opacity="1" d="M 49.605469 30.875 C 49.511719 32.355469 47.839844 33.246094 47.386719 34.488281 C 46.898438 35.707031 48.753906 36.710938 49.765625 36.976562 C 49.019531 37.125 48.226562 36.886719 47.566406 36.46875 C 45.65625 35.296875 46.847656 33.425781 48.160156 32.433594 C 48.699219 31.945312 49.304688 31.558594 49.605469 30.875 "/>
</svg>
