<?xml version="1.0" encoding="UTF-8"?>
<svg id="Layer_2" data-name="Layer 2" xmlns="http://www.w3.org/2000/svg" viewBox="0 0 423.37 386.17">
  <defs>
    <style>
      .cls-1, .cls-2, .cls-3, .cls-4, .cls-5 {
        fill: none;
      }

      .cls-1, .cls-2, .cls-3, .cls-5 {
        stroke: #000;
      }

      .cls-1, .cls-2, .cls-5 {
        stroke-miterlimit: 10;
      }

      .cls-1, .cls-3, .cls-4 {
        stroke-width: 4px;
      }

      .cls-6, .cls-7 {
        stroke-width: 0px;
      }

      .cls-4 {
        stroke: #f15a24;
      }

      .cls-5 {
        stroke-width: 3px;
      }

      .cls-7 {
        fill: #f15a24;
      }
    </style>
  </defs>
  <g id="Layer_1-2" data-name="Layer 1">
    <g>
      <path class="cls-4" d="M330.74,367.95h17.07v14.51h-17.07v-14.51Z"/>
      <path class="cls-3" d="M355.32,354.64l15.19-1.71v13.14c0,2.73,2.05,4.61,4.95,4.61h.85c2.9,0,4.95-1.88,4.95-4.61v-10.07c0-10.92-26.11-10.92-26.11-30.04v-13.65c0-10.07,6.65-16.9,16.55-16.9h8.19c9.9,0,16.56,6.83,16.56,16.9v10.92l-15.19,1.71v-15.53c0-.28-.23-.51-.51-.51h-9.04c-.28,0-.51.23-.51.51v13.66c0,10.92,26.11,10.92,26.11,30.04v14.17c0,9.33-7.56,16.9-16.9,16.9h-8.19c-9.33,0-16.9-7.56-16.9-16.9v-12.63Z"/>
      <path class="cls-3" d="M421.37,275.96v11.95h-16.04v-11.95h16.04ZM405.33,382.46v-85.34h16.04v85.34h-16.04Z"/>
    </g>
    <g>
      <path class="cls-3" d="M6.22,142.57h78.18l-46.43,219.53,42.68-7.51v26.97H2.47l46.43-219.53-42.68,7.51v-26.97Z"/>
      <path class="cls-3" d="M92.47,142.57h33.8l14.68,157.74,2.39,40.63,12.63-198.37h33.8l-30.73,239h-35.85l-30.73-239Z"/>
      <path class="cls-3" d="M289.28,170.22h-30.05v-29.36h62.82v200.07c0,29.7-11.95,42.34-37.55,42.34h-4.78c-25.61,0-37.56-12.63-37.56-42.34v-31.07l31.07-6.83v39.94c0,6.49,3.07,10.93,7.17,10.93h1.7c4.1,0,7.17-4.44,7.17-10.93v-172.76Z"/>
    </g>
    <path class="cls-5" d="M202.21,174.11c-.17,10.36,1.64,13.27.78,32.78-1.21,27.67,4.11,74.99,5.36,132.03,0,0,.96,7.11,2.5,43.46l10.32.7c1.73-17.83,3.18-32.44,4.19-42.4,0,0,5.27-52.3,11.36-123.77.11-1.35.18-2.68.18-2.68.07-1.46.02-2.28.71-15.77,1.51-29.48,1.72-42.39.4-50.2-.12-.73-.38-1.29-.72-1.75-1.06-1.4-2.75-.96-5.04-2.22-1.13-.62-1.74-1.27-2.06-1.55-2.97-2.55-17.35.41-28,1.15-4.09.28.23,16.61.01,30.22Z"/>
    <path class="cls-6" d="M228.87,315.7c-6.82,3.42-14.73,2.1-21.04-1.79,5.49,1.97,11.91,2.65,17.09-.41.71-.41,1.31-.84,2.16-1.37l1.79,3.58h0Z"/>
    <path class="cls-2" d="M209.19,142.5c5.96,33.45,2.04,81.78,2.62,96.33.86,21.74,2.69,43.88,1.77,63.87-.91,19.85.6,69.28.6,79.9"/>
    <path class="cls-7" d="M237.96,141.89c-.86.04-1.61-.51-2.29-.94-1.3-.88-2.53-1.95-3.9-2.63-2.07-.88-4.44-.79-6.63-1.01-.57-.06-1.55.12-2.17.18-7.18.75-14.32,1.91-21.6,1.76,7.23-2.78,14.83-4.36,22.56-4.7,2.32-.05,4.7.6,6.93,1.21,2.34.75,3.83,2.84,5.32,4.62.53.59,1,1.26,1.77,1.52h0Z"/>
    <path class="cls-1" d="M170.68,34s3.71,20.14,13.73,31.36c8.22,9.2,17.02,16.11,17.02,16.11,0,0-4.43-1-10.76-1.7-9.65-1.06-21.21,4.43-21.21,4.43,0,0,11.43,9.06,23.08,9.11,6.3.02,12.45-.48,12.45-.48,0,0-2.6,2-6.16,5.06-4.05,3.47-7.91,11.17-7.91,11.17,0,0,11.44-.56,18.79-6.98,5.91-5.16,7.8-11.1,8.39-9.8,3.49,7.69-1.68,14.55-1.68,14.55,0,0,5.67-4.27,2.77-14.38-.35-1.2.39,1.85.9,2.99,1.28,2.86,3.39,7.06,6,10.5,4.5,5.91,13.88,8.1,13.88,8.1,0,0-1.3-9.58-5.6-14.85.88,1.21-4.16-4.67-4.16-4.67,0,0,1.19,3.65,12.47,6.85,11.06,3.5,24.25-4.8,24.25-4.8,0,0-8.7-5.53-12.45-6.67-9.37-2.85-15.44-3.44-15.44-3.44,0,0,10.55-4.67,21.48-12.68,11.91-8.72,18.64-26.09,18.64-26.09,0,0-19.45,1.93-27.48,6.23-18.72,11.26-20.51,16.72-20.51,16.72,0,0,5.61-5.76,7.14-21.62,2.27-23.51-8.88-45.56-8.88-45.56,0,0-16.82,17.73-18.35,37.87-1.11,14.67,1.44,27.35,1.44,27.35,0,0-3.76-7.72-10.02-15.91-10.39-13.6-31.82-18.74-31.82-18.74Z"/>
    <path class="cls-7" d="M236.24,135.36c-.86.04-1.62-.51-2.29-.95-1.3-.88-2.54-1.95-3.9-2.63-2.08-.87-4.45-.79-6.65-1-.33-.03-.67,0-.97.04-7.35,1.02-14.99,1.82-21.05,6.57,1.53-2.97,4.47-5.09,7.5-6.47,4.31-1.96,8.96-2.7,13.61-2.92,2.41.06,5.08.68,7.34,1.47,1.98.96,3.29,2.74,4.64,4.36.53.59,1,1.26,1.78,1.52h0Z"/>
    <path class="cls-6" d="M216.69,92.65c1.83,6.79.9,14.89-4.43,19.92-1.39,1.56-3.51,2.96-3.04,5.12.68,3.42,6.41,3.8,9.39,4.67,4.3,1.05,9.62,1.97,12.33,5.87-3.62-2.93-8.32-2.91-12.73-3.57-3.5-.53-7.54-.72-10.41-3.41-1.06-1.06-1.6-2.62-1.63-4.1-.07-2.96,2.31-4.85,4.09-6.58,5.21-4.52,6.27-11.13,6.44-17.92h0Z"/>
    <path class="cls-6" d="M213.36,99.45c-.1,3.41-2.68,6.26-4.77,8.71-6.79,7.42-8.78,11.41.98,16.97,1.39.75,2.85,1.41,4.49,1.68-1.65.43-3.4.13-5.04-.28-8.67-2.53-12.43-9.26-5.69-16.53,3.19-3.77,7.9-5.97,10.02-10.55h0Z"/>
  </g>
</svg>